<svg version="1.1" id="Layer_1" xmlns="http://www.w3.org/2000/svg" xmlns:xlink="http://www.w3.org/1999/xlink" x="0px" y="0px"
	 width="100%" viewBox="0 0 190 151" enable-background="new 0 0 190 151" xml:space="preserve">
<path fill="#FDFDFD" opacity="1.000000" stroke="none" 
	d="
M191.000000,61.000000 
	C191.000000,91.666664 191.000000,121.833336 191.000000,152.000000 
	C127.666664,152.000000 64.333336,152.000000 1.000000,152.000000 
	C1.000000,101.666664 1.000000,51.333332 1.000000,1.000000 
	C64.333336,1.000000 127.666664,1.000000 191.000000,1.000000 
	C191.000000,20.833334 191.000000,40.666668 191.000000,61.000000 
M38.329868,110.992867 
	C37.886639,110.995453 37.443405,110.998032 36.600384,110.492729 
	C35.733299,110.993622 34.866215,111.494522 33.310844,112.006531 
	C32.207264,112.676239 31.103683,113.345955 29.391899,113.746353 
	C28.470985,113.812645 27.550074,113.878937 26.629160,113.945229 
	C27.520044,118.646751 23.836432,116.430527 21.711302,116.425095 
	C20.139853,115.615891 18.568403,114.806679 16.997759,113.320457 
	C16.666317,112.543289 16.334877,111.766121 15.879736,110.276085 
	C14.057817,109.351692 12.235898,108.427299 10.413980,107.502907 
	C10.534206,108.142387 10.654432,108.781876 10.774659,109.421364 
	C9.494754,110.632446 8.211631,111.840157 6.936293,113.056023 
	C6.296234,113.666252 5.445327,114.179916 5.074914,114.927956 
	C2.840482,119.440369 4.654803,122.290703 9.090797,124.735550 
	C10.373570,125.539062 11.562354,126.620537 12.957326,127.092232 
	C16.651056,128.341232 19.344158,130.046463 17.523611,134.460037 
	C18.902018,135.070175 19.950247,135.534180 21.666803,135.999146 
	C22.112356,135.999634 22.557909,136.000122 22.995773,136.795441 
	C22.989210,137.855286 22.982647,138.915146 22.242662,140.077652 
	C19.964668,140.883209 17.686674,141.688751 15.255632,142.548431 
	C16.684423,144.530624 17.859468,146.160797 18.868937,147.561249 
	C21.096582,146.630051 23.047796,145.814407 25.641298,144.945007 
	C26.426146,144.294128 27.210993,143.643265 28.669802,142.892105 
	C31.417130,140.607834 33.847710,137.645096 36.978989,136.183258 
	C43.133259,133.310104 43.627090,132.684387 40.503723,126.577919 
	C40.335918,125.052757 40.168110,123.527603 40.333588,121.823570 
	C40.223114,121.548431 40.112644,121.273293 40.000000,121.000000 
	C40.000000,121.000000 40.002491,120.997734 40.001610,120.332993 
	C40.002827,119.889862 40.004044,119.446724 40.497261,119.004723 
	C40.497261,119.004723 40.989254,119.007652 41.381458,119.392204 
	C42.255795,118.595207 43.130127,117.798218 44.495777,117.004601 
	C44.495777,117.004601 44.987083,117.008804 45.036140,117.602402 
	C45.357407,118.068268 45.678673,118.534134 46.000038,119.499847 
	C46.000038,119.499847 45.999542,119.999695 45.724041,120.107208 
	C45.816132,120.071571 45.908222,120.035942 46.647038,119.939026 
	C47.099747,118.959274 47.552456,117.979530 48.004719,116.240639 
	C47.669350,114.493248 47.333981,112.745865 46.332458,110.999344 
	C45.888355,110.999565 45.444256,110.999779 44.507511,111.332405 
	C44.337353,111.887894 44.167198,112.443382 44.000000,113.000000 
	C44.000000,113.000000 43.998520,112.996857 43.499256,112.997482 
	C43.499256,112.997482 43.000000,113.000000 42.334579,113.000061 
	C41.890968,113.000023 41.447353,112.999985 40.787407,112.560486 
	C40.587032,112.286743 40.324715,112.100014 39.499268,112.000504 
	C39.332207,112.000336 39.165146,112.000168 39.003353,111.502541 
	C39.003353,111.502541 39.006542,111.005058 39.281345,110.893486 
	C39.185810,110.926758 39.090271,110.960022 38.329868,110.992867 
M83.233337,88.915611 
	C82.799149,88.937546 82.364967,88.959473 81.467545,88.979744 
	C81.467545,88.979744 81.004517,88.993690 80.789726,88.546371 
	C80.414551,88.568680 80.039375,88.590988 79.664200,88.613289 
	C80.107468,88.744186 80.550743,88.875084 80.897362,89.708252 
	C79.765366,90.446617 78.633369,91.184975 77.240776,92.093315 
	C77.834946,93.601128 78.449539,95.160789 78.936127,96.395592 
	C81.479202,95.534332 83.444450,94.868759 85.499100,94.197906 
	C85.499100,94.197906 85.574036,94.146317 86.382019,94.178314 
	C86.917259,94.116768 87.452499,94.055222 88.217056,94.501556 
	C88.566391,94.779373 88.915733,95.057190 89.265068,95.335007 
	C89.518150,94.861641 89.771240,94.388283 90.818565,93.925865 
	C91.595825,93.849976 92.373077,93.774086 93.466835,93.947472 
	C93.466835,93.947472 93.869698,93.944824 94.360367,94.206184 
	C94.802727,94.505821 95.245094,94.805458 95.687454,95.105095 
	C95.807259,94.677505 95.927071,94.249924 96.450546,93.919266 
	C96.450546,93.919266 96.865524,93.931763 97.348984,93.986862 
	C97.348984,93.986862 97.834045,94.025398 98.201309,94.531998 
	C98.791389,94.684105 99.381477,94.836212 100.770439,95.006073 
	C102.854774,94.647705 104.939110,94.289337 107.818176,93.947403 
	C108.880310,93.957756 109.942444,93.968109 111.309731,94.470802 
	C111.842720,94.653740 112.375717,94.836685 113.625450,94.993179 
	C116.453392,94.670280 119.281326,94.347382 122.886147,94.009781 
	C124.733910,93.601036 126.581673,93.192284 128.041489,92.869354 
	C129.538391,93.880272 130.918121,95.599121 132.301178,95.601791 
	C136.853302,95.610611 141.406616,94.997681 147.719925,94.478912 
	C144.521423,91.415245 142.173050,89.165871 139.252121,86.368088 
	C139.252121,89.367012 139.476624,92.299545 139.216827,92.343094 
	C137.017181,92.711838 134.729218,92.553665 132.138214,92.553665 
	C133.785538,90.748634 134.913971,89.512177 136.120361,88.190300 
	C131.666199,85.491318 130.094452,86.279617 128.766937,91.450874 
	C127.510185,89.289566 126.253426,87.128265 125.537598,84.510475 
	C125.354622,82.675957 125.171646,80.841431 124.880646,78.309875 
	C124.210098,76.837791 123.539551,75.365707 122.869011,73.893623 
	C123.479126,74.107048 124.089241,74.320465 124.699356,74.533890 
	C126.160805,72.923523 127.622253,71.313148 129.668152,70.048134 
	C130.773361,70.803497 131.878586,71.558853 133.072388,72.872826 
	C133.486847,73.182854 133.901321,73.492889 134.141449,73.748039 
	C134.141449,73.748039 134.324188,73.744934 133.953598,74.237747 
	C134.032654,75.365982 134.111725,76.494225 134.190796,77.622459 
	C134.686203,77.548416 135.181610,77.474373 135.677017,77.400330 
	C135.812332,76.482216 135.947647,75.564102 136.814667,74.849869 
	C139.543091,75.567505 142.271530,76.285133 145.077393,77.596169 
	C145.480240,77.917656 145.883072,78.239143 146.285919,78.560631 
	C146.524231,78.050056 146.762527,77.539474 147.759827,76.796837 
	C150.886185,75.330032 155.959930,77.572632 157.567352,72.169846 
	C163.636856,72.555901 163.955551,67.287209 166.284073,63.994774 
	C165.879776,63.621983 165.475494,63.249195 165.071213,62.876408 
	C162.384689,65.940880 159.698166,69.005363 156.245392,72.039642 
	C143.524765,73.366798 136.919464,69.973488 132.853806,59.823093 
	C131.881882,57.396599 131.371597,54.785206 130.824310,51.476002 
	C130.769028,50.680359 130.713745,49.884716 130.828140,48.335190 
	C130.976044,45.677727 131.051056,43.013817 131.285599,40.364021 
	C131.971985,32.609547 137.857773,25.305693 144.431885,23.957756 
	C151.713440,22.464769 155.437439,24.744978 160.780258,34.606102 
	C161.140457,35.430199 161.500641,36.254295 161.833618,37.813244 
	C162.567444,38.828079 163.301270,39.842911 164.544891,40.899994 
	C164.661438,40.609417 164.778000,40.318840 165.054367,39.274750 
	C165.005234,38.508507 164.956100,37.742268 165.009048,36.501205 
	C165.009048,36.501205 164.904266,36.026974 165.035339,35.356426 
	C165.017242,34.901978 164.999130,34.447529 165.229218,33.095680 
	C165.212189,29.985359 165.312180,26.868690 165.143906,23.766575 
	C164.988327,20.898176 163.616089,20.911667 161.243500,23.022478 
	C160.387405,22.983507 159.398621,23.213448 158.694687,22.866106 
	C142.486252,14.868437 123.771523,25.022621 121.871216,45.471935 
	C121.095955,53.814598 123.421127,61.164600 126.346153,68.152740 
	C123.225845,70.111259 120.105537,72.069771 116.173485,74.001534 
	C112.707123,73.807762 113.001289,71.263405 113.001221,68.913467 
	C113.000824,55.273964 112.946060,41.634106 113.028923,27.995089 
	C113.078278,19.871374 113.601479,19.316786 121.080528,17.459648 
	C121.722816,17.300161 122.438629,17.278896 122.995583,16.969172 
	C123.922234,16.453842 124.747803,15.756724 125.615936,15.136164 
	C124.676285,14.439617 123.736641,13.743071 122.455040,12.610417 
	C121.970169,12.357864 121.485306,12.105312 120.982498,11.136596 
	C119.018013,9.046306 115.655762,9.344600 112.316574,11.980606 
	C111.869270,11.938914 111.421959,11.897223 110.405479,11.350343 
	C107.945374,11.519415 105.485260,11.688488 102.174713,11.997689 
	C100.455742,11.951513 98.736763,11.905336 96.912971,11.170128 
	C94.322327,7.408310 92.553032,8.877195 91.111465,12.086300 
	C91.111465,12.086300 91.122353,12.139522 90.428017,12.152448 
	C89.790993,13.318591 89.153969,14.484735 88.516953,15.650881 
	C90.990410,16.732473 93.463867,17.814066 97.232689,19.462091 
	C97.984825,22.883181 99.773727,27.536882 99.877945,32.228008 
	C100.087036,41.639397 99.427155,51.073486 99.013168,60.493248 
	C98.889397,63.309723 98.391159,66.109734 97.760986,69.576866 
	C97.520767,70.730927 97.280556,71.884995 97.025352,73.008926 
	C97.025352,73.008926 97.023727,73.035767 96.413918,73.053825 
	C95.937439,73.382248 95.460953,73.710663 94.527885,74.077568 
	C94.527885,74.077568 94.069817,74.088623 93.515594,73.484787 
	C89.618843,71.657898 86.720016,73.755806 83.964439,75.021393 
	C83.932388,69.016914 83.900337,63.012428 84.003677,56.078144 
	C83.955513,48.710163 83.907341,41.342178 84.016891,33.212708 
	C85.043045,30.537323 86.069199,27.861940 87.889244,25.108719 
	C89.658775,24.496103 91.428314,23.883486 93.197845,23.270870 
	C85.967384,20.093004 72.361755,20.943653 71.226372,23.241840 
	C73.795609,24.498707 76.346931,25.746809 79.046700,27.760962 
	C79.495529,29.518381 79.944359,31.275801 80.294441,33.960052 
	C80.358154,41.965073 80.421867,49.970089 80.275673,58.774910 
	C80.357521,59.594189 80.439369,60.413471 79.747772,61.182568 
	C79.494141,61.133385 79.240509,61.084198 78.766647,60.401451 
	C77.610489,59.034908 76.454323,57.668365 75.222130,55.648460 
	C71.036247,49.899643 66.941208,44.081703 62.635902,38.423763 
	C59.157223,33.852177 55.425102,29.473442 51.783985,24.256950 
	C50.993744,23.275805 50.246815,21.490944 49.406136,21.445637 
	C44.433384,21.177635 39.438866,21.313509 34.451668,21.313509 
	C34.349564,21.916035 34.247459,22.518560 34.145355,23.121086 
	C35.433094,23.712965 36.720833,24.304844 38.639290,25.204012 
	C40.592552,27.828245 42.545811,30.452478 44.378979,33.995396 
	C44.471378,41.770512 44.563782,49.545624 44.320618,57.879845 
	C44.382729,58.945633 44.444843,60.011425 44.325367,61.833706 
	C44.339661,62.867226 44.353951,63.900745 44.142826,65.595230 
	C45.512302,71.023811 41.054298,71.084152 37.238071,72.480934 
	C36.763237,73.171921 36.288403,73.862900 35.813564,74.553886 
	C36.544052,74.709061 37.274536,74.864235 38.655621,75.198990 
	C39.099628,75.141350 39.543640,75.083717 40.905605,75.176300 
	C44.938122,75.119453 48.970642,75.062599 53.651585,75.205353 
	C54.096916,75.152496 54.542244,75.099648 55.664310,75.198601 
	C56.320473,74.745071 56.976631,74.291542 57.632790,73.838013 
	C56.771919,73.319557 55.911053,72.801102 54.366062,71.965599 
	C50.481483,71.301933 48.462238,68.654465 48.388908,65.061592 
	C48.173866,54.526009 48.312332,43.983208 48.312332,32.548805 
	C49.445625,33.992432 50.038742,34.720776 50.603016,35.470818 
	C60.048214,48.025452 69.489807,60.582794 79.153061,73.787323 
	C80.434547,74.571266 81.716026,75.355209 82.877182,76.800255 
	C78.365822,81.053123 78.365822,81.053123 78.990974,83.118141 
	C82.947693,81.118996 87.007050,79.067993 90.727104,77.613922 
	C89.851250,79.393288 88.975388,81.172646 87.277054,82.986252 
	C85.911034,83.155075 84.545021,83.323906 82.707787,83.550972 
	C83.707169,85.493179 84.356857,86.755814 84.975266,88.477745 
	C84.975266,88.477745 84.953156,88.937897 84.414825,89.009254 
	C84.235336,89.034180 84.055847,89.059113 83.233337,88.915611 
M61.336449,132.836060 
	C61.913990,131.908783 62.491531,130.981491 63.337448,129.908417 
	C63.209366,129.919220 63.081284,129.930023 62.382393,129.736938 
	C61.584797,130.788452 60.787205,131.839951 59.251278,132.940536 
	C58.515228,133.000946 57.779175,133.061356 56.652771,132.577820 
	C54.964874,132.793549 53.276974,133.009293 51.528851,133.232727 
	C51.919834,135.387878 52.222343,137.055344 52.591969,139.092773 
	C54.067833,138.186142 55.025490,137.597855 56.293671,137.602219 
	C57.629650,137.598145 58.965630,137.594070 60.301605,137.590012 
	C60.221729,137.023438 60.141853,136.456848 60.027622,135.318268 
	C60.024906,134.936279 60.022190,134.554306 60.393669,133.911819 
	C60.669674,133.707993 60.771446,133.438416 61.336449,132.836060 
M152.021774,136.450424 
	C151.879074,136.184784 151.736374,135.919159 151.593658,135.653534 
	C151.709793,136.116653 151.825928,136.579788 152.457291,137.591843 
	C158.372742,138.185135 159.485443,136.931473 158.774368,131.592316 
	C156.803833,133.161575 154.439362,135.044556 152.021774,136.450424 
M154.290039,130.884796 
	C151.067535,130.098083 147.845016,129.311371 144.622513,128.524658 
	C144.415497,128.961777 144.208481,129.398895 144.001465,129.836014 
	C144.610031,130.894424 145.218597,131.952850 145.547653,133.575653 
	C144.741989,134.480026 143.936310,135.384399 142.517639,136.976868 
	C142.517639,134.037521 142.517639,131.896942 142.517639,129.768173 
	C135.938812,129.218246 135.938812,129.218246 135.709305,138.163849 
	C139.490723,136.166428 146.203278,141.774704 147.717728,132.975189 
	C150.142776,132.314987 152.567825,131.654770 155.269028,130.889328 
	C155.181198,130.928589 155.093369,130.967865 154.290039,130.884796 
M127.957108,113.474007 
	C127.955284,113.302155 127.953453,113.130295 128.678406,112.963226 
	C129.252090,111.544395 129.825775,110.125572 130.553085,108.326828 
	C126.879349,108.326828 124.636871,108.343956 122.394730,108.323486 
	C116.559593,108.270226 113.093719,111.113174 113.242584,116.520882 
	C113.487190,117.009201 113.731796,117.497528 113.259605,118.075493 
	C110.760612,119.590927 109.222595,121.156883 113.011681,123.772530 
	C113.903412,128.589798 108.279930,127.992508 106.304726,131.116669 
	C104.869240,132.744049 103.433754,134.371429 101.559914,136.212875 
	C101.286858,136.413254 101.103897,136.676300 100.384132,137.092651 
	C100.080513,137.416199 99.776886,137.739746 99.473259,138.063278 
	C100.319611,138.365387 101.165962,138.667496 102.286095,139.535919 
	C103.520668,139.345184 104.755249,139.154449 106.685997,138.915024 
	C108.448814,137.274094 110.211632,135.633148 112.500854,133.637375 
	C113.338043,132.434174 114.175232,131.230957 115.609222,130.267258 
	C116.971947,131.541061 118.334679,132.814850 120.105576,134.470184 
	C120.703011,131.502060 121.362480,128.225708 122.464638,125.178398 
	C122.740379,125.382568 122.936722,125.645935 123.021156,126.709732 
	C123.331795,129.049835 123.642433,131.389954 123.950150,133.708008 
	C126.611473,131.932587 126.842705,130.238831 125.406700,125.761871 
	C125.686104,125.558884 125.879631,125.293304 126.809860,124.953926 
	C131.076920,121.696762 128.972656,117.788582 127.957108,113.474007 
M156.032852,88.358147 
	C154.221252,88.936005 152.409653,89.513863 150.499344,90.123207 
	C149.455704,89.127342 148.320374,88.043991 147.185028,86.960632 
	C146.775040,87.423378 146.365051,87.886124 145.955063,88.348869 
	C147.571091,89.556984 149.139725,90.837166 150.822495,91.943802 
	C151.708084,92.526184 152.890228,92.662865 153.763046,93.258057 
	C154.804337,93.968155 155.657745,94.953751 156.592560,95.819984 
	C157.285797,94.582314 157.979034,93.344643 158.141144,93.055229 
	C160.619247,92.733696 162.420364,92.500008 164.371109,92.246895 
	C164.132568,93.670570 163.963867,94.677345 163.795181,95.684113 
	C164.214081,95.801041 164.632996,95.917969 165.051895,96.034889 
	C165.828857,93.549698 166.605804,91.064514 167.635681,87.770332 
	C163.567963,87.770332 159.935623,87.770332 156.032852,88.358147 
M73.254433,132.940491 
	C73.654976,132.106064 74.055519,131.271637 74.456062,130.437210 
	C74.128044,130.232559 73.800026,130.027908 73.472008,129.823242 
	C72.147118,131.409637 70.822227,132.996033 69.464035,134.622299 
	C70.595360,136.186951 71.540520,137.494125 72.388863,138.667389 
	C74.666748,138.300262 76.585083,137.991074 78.516441,137.679794 
	C78.055786,135.802994 77.638298,134.102051 77.085152,131.848419 
	C76.255280,133.247818 75.637100,134.290237 75.018921,135.332672 
	C74.390938,134.764343 73.762955,134.196014 73.254433,132.940491 
M47.827751,89.985336 
	C53.395283,89.985336 58.962814,89.985336 64.530342,89.985336 
	C64.538750,89.420990 64.547157,88.856636 64.555565,88.292290 
	C58.687885,88.292290 52.820202,88.292290 46.952522,88.292290 
	C46.988270,88.801773 47.024014,89.311264 47.827751,89.985336 
M54.763523,94.686295 
	C54.999710,94.492081 55.259613,94.318550 55.457794,94.091209 
	C55.518177,94.021942 55.425640,93.679886 55.374336,93.672859 
	C53.299175,93.388405 50.869843,93.717957 49.219109,92.736115 
	C46.213928,90.948647 46.304935,90.648827 43.659485,95.101013 
	C47.599941,94.916702 50.897331,94.762466 54.763523,94.686295 
M26.373817,107.331505 
	C25.377367,108.245506 24.380919,109.159500 23.384468,110.073502 
	C26.100252,110.764641 28.502682,111.161217 26.373817,107.331505 
M20.957075,111.532166 
	C20.945778,110.778244 20.934481,110.024315 20.923183,109.270393 
	C20.324692,109.649109 19.726202,110.027824 19.127714,110.406540 
	C19.660500,110.985390 20.193287,111.564240 20.957075,111.532166 
M180.223297,134.472855 
	C181.012833,134.131195 181.802368,133.789551 182.591904,133.447906 
	C182.232697,133.103394 181.873489,132.758881 181.514282,132.414383 
	C180.985489,133.313156 180.456680,134.211929 180.223297,134.472855 
M43.647022,88.757133 
	C43.166935,88.831024 42.686848,88.904915 42.206760,88.978813 
	C42.276409,89.401474 42.346062,89.824142 42.415714,90.246803 
	C42.850002,89.939201 43.284286,89.631599 43.647022,88.757133 
M13.485008,144.560303 
	C13.557859,144.003098 13.630710,143.445908 13.703561,142.888702 
	C13.467108,142.869965 13.230654,142.851242 12.994201,142.832520 
	C12.994201,143.452560 12.994201,144.072617 13.485008,144.560303 
M41.204498,138.606277 
	C41.208969,138.211594 41.213444,137.816910 41.217918,137.422226 
	C41.054230,137.420990 40.748333,137.408630 40.747437,137.420120 
	C40.716747,137.812744 40.714958,138.207611 41.204498,138.606277 
M148.235107,83.531532 
	C147.847519,83.404350 147.464615,83.256279 147.068390,83.167778 
	C146.989990,83.150261 146.860458,83.361732 146.754517,83.467613 
	C147.142090,83.594604 147.529663,83.721603 148.235107,83.531532 
M34.649498,107.334450 
	C34.531532,107.579849 34.413567,107.825241 34.295601,108.070641 
	C34.531189,108.142143 34.766777,108.213638 35.002365,108.285141 
	C35.027863,107.947205 35.053356,107.609268 34.649498,107.334450 
M62.105194,92.460930 
	C62.363705,92.538208 62.622215,92.615494 62.880722,92.692780 
	C62.945091,92.436562 63.009460,92.180351 63.073833,91.924133 
	C62.748768,91.882080 62.423702,91.840034 62.105194,92.460930 
M154.411270,77.482857 
	C154.411270,77.482857 154.522614,77.416763 154.411270,77.482857 
z"/>
<path fill="#6A6A6A" opacity="1.000000" stroke="none" 
	d="
M144.999954,77.002769 
	C142.271530,76.285133 139.543091,75.567505 136.274414,74.563896 
	C135.264175,74.100258 134.794174,73.922600 134.324188,73.744934 
	C134.324188,73.744934 134.141449,73.748039 134.176956,73.478836 
	C133.802902,72.911163 133.393356,72.612686 132.983795,72.314209 
	C131.878586,71.558853 130.773361,70.803497 129.297119,69.650238 
	C128.398117,68.919327 127.870148,68.586304 127.342194,68.253281 
	C123.421127,61.164600 121.095955,53.814598 121.871216,45.471935 
	C123.771523,25.022621 142.486252,14.868437 158.694687,22.866106 
	C159.398621,23.213448 160.387405,22.983507 161.704437,23.110905 
	C162.772430,24.457100 163.626007,25.658064 163.931839,26.985250 
	C164.460632,29.279932 164.649536,31.652935 164.981018,33.993080 
	C164.999130,34.447529 165.017242,34.901978 164.805573,35.771786 
	C164.686188,36.450104 164.796570,36.713062 164.906952,36.976025 
	C164.956100,37.742268 165.005234,38.508507 164.780609,39.729584 
	C164.267441,40.351292 164.110184,40.575737 164.035095,40.857742 
	C163.301270,39.842911 162.567444,38.828079 162.134247,37.244633 
	C161.858902,35.758358 161.282944,34.840694 160.707001,33.923027 
	C155.437439,24.744978 151.713440,22.464769 144.431885,23.957756 
	C137.857773,25.305693 131.971985,32.609547 131.285599,40.364021 
	C131.051056,43.013817 130.976044,45.677727 130.373032,48.818924 
	C130.161606,50.288055 130.405289,51.273453 130.648987,52.258850 
	C131.371597,54.785206 131.881882,57.396599 132.853806,59.823093 
	C136.919464,69.973488 143.524765,73.366798 156.601196,72.039352 
	C156.957001,72.039070 156.923462,71.986053 156.923462,71.986053 
	C155.959930,77.572632 150.886185,75.330032 147.050476,76.837097 
	C145.894073,76.919167 145.447006,76.960968 144.999954,77.002769 
M129.588348,45.518658 
	C129.588348,45.518658 129.473541,45.590687 129.588348,45.518658 
z"/>
<path fill="#6D6D6D" opacity="1.000000" stroke="none" 
	d="
M78.932205,73.139534 
	C69.489807,60.582794 60.048214,48.025452 50.603016,35.470818 
	C50.038742,34.720776 49.445625,33.992432 48.312332,32.548805 
	C48.312332,43.983208 48.173866,54.526009 48.388908,65.061592 
	C48.462238,68.654465 50.481483,71.301933 54.704014,72.469986 
	C55.023834,73.665184 55.005707,74.355995 54.987576,75.046799 
	C54.542244,75.099648 54.096916,75.152496 53.042805,74.804657 
	C48.285233,74.611328 44.136440,74.818703 39.987648,75.026077 
	C39.543640,75.083717 39.099628,75.141350 38.332466,74.665634 
	C37.977303,73.540749 37.945293,72.949226 37.913284,72.357704 
	C41.054298,71.084152 45.512302,71.023811 44.556679,65.187424 
	C44.816002,63.545483 44.661476,62.311348 44.506950,61.077213 
	C44.444843,60.011425 44.382729,58.945633 44.837196,57.299873 
	C45.531956,49.243542 45.731888,41.767456 45.827923,34.290043 
	C45.833042,33.891354 44.962154,33.481411 44.499073,33.076710 
	C42.545811,30.452478 40.592552,27.828245 38.416222,24.665730 
	C42.905575,21.719574 47.388752,22.850893 51.805412,25.009157 
	C55.425102,29.473442 59.157223,33.852177 62.635902,38.423763 
	C66.941208,44.081703 71.036247,49.899643 75.114609,56.328835 
	C75.845886,59.852310 75.895279,63.445232 77.712791,65.358696 
	C80.290092,68.072067 80.386871,70.249237 78.932205,73.139534 
z"/>
<path fill="#F5F8F8" opacity="1.000000" stroke="none" 
	d="
M124.996674,84.966965 
	C126.253426,87.128265 127.510185,89.289566 128.766937,91.450874 
	C130.094452,86.279617 131.666199,85.491318 136.120361,88.190300 
	C134.913971,89.512177 133.785538,90.748634 132.138214,92.553665 
	C134.729218,92.553665 137.017181,92.711838 139.216827,92.343094 
	C139.476624,92.299545 139.252121,89.367012 139.252121,86.368088 
	C142.173050,89.165871 144.521423,91.415245 147.719925,94.478912 
	C141.406616,94.997681 136.853302,95.610611 132.301178,95.601791 
	C130.918121,95.599121 129.538391,93.880272 128.041489,92.869354 
	C126.581673,93.192284 124.733910,93.601036 122.465424,93.608269 
	C122.051987,91.844276 122.059273,90.481796 122.330719,89.181778 
	C122.958061,89.169456 123.321243,89.094666 123.684425,89.019875 
	C122.818367,88.713425 121.952301,88.406967 120.641106,88.070198 
	C118.705055,88.037178 116.750885,87.427620 115.810196,88.145714 
	C113.002930,90.288658 107.319885,88.125107 107.023445,93.930969 
	C104.939110,94.289337 102.854774,94.647705 100.437180,94.642303 
	C100.859703,92.726784 101.615494,91.175026 102.371284,89.623260 
	C102.044228,89.497910 101.717171,89.372559 101.390114,89.247208 
	C100.946121,89.666748 100.502129,90.086296 100.049591,90.516968 
	C100.041046,90.528091 100.044907,90.506332 99.988617,90.075439 
	C99.445724,89.421783 98.959122,89.199013 98.265411,88.971825 
	C97.782082,88.966721 97.505905,88.962914 96.894180,88.871078 
	C96.335747,88.846245 96.112923,88.906303 95.578026,88.975021 
	C94.849731,88.983994 94.433502,88.984299 93.758759,88.868202 
	C93.317390,88.703735 93.134529,88.655670 92.965103,88.246048 
	C92.988396,86.918953 92.998245,85.953423 93.443542,84.989372 
	C100.495201,84.679047 107.109314,84.203789 113.728447,84.118965 
	C117.480286,84.070900 121.240334,84.663116 124.996674,84.966965 
z"/>
<path fill="#F5FBFB" opacity="1.000000" stroke="none" 
	d="
M45.000153,111.000000 
	C45.444256,110.999779 45.888355,110.999565 46.629623,111.352760 
	C46.280216,113.473717 45.633648,115.241257 44.987083,117.008804 
	C44.987083,117.008804 44.495777,117.004601 43.895290,117.007439 
	C42.526287,117.676071 41.757771,118.341858 40.989254,119.007652 
	C40.989254,119.007652 40.497261,119.004723 40.034271,118.744400 
	C38.786400,118.719803 38.001526,118.955513 37.216644,119.191238 
	C38.145260,119.793404 39.073875,120.395569 40.002487,120.997742 
	C40.002491,120.997734 40.000000,121.000000 40.000069,121.250153 
	C40.000195,121.667694 40.000252,121.835068 40.000305,122.002441 
	C40.168110,123.527603 40.335918,125.052757 39.864567,126.790054 
	C36.581604,127.905304 36.089970,132.704803 31.855171,130.835754 
	C31.463537,131.106369 31.218182,131.533585 30.679953,131.989090 
	C29.932198,132.341873 29.477312,132.666336 28.817011,133.274353 
	C26.742216,134.372147 24.872839,135.186371 23.003462,136.000610 
	C22.557909,136.000122 22.112356,135.999634 21.334278,135.591141 
	C21.547485,131.692276 21.305988,127.731476 26.040993,126.741348 
	C25.694654,126.160591 25.348318,125.579842 25.054909,124.656288 
	C25.746305,122.897713 26.384773,121.481926 27.276762,119.941986 
	C28.018938,119.537903 28.507595,119.257973 29.382336,118.986130 
	C34.949707,118.940857 35.062973,115.823914 33.999130,111.995422 
	C34.866215,111.494522 35.733299,110.993622 36.967831,110.991173 
	C37.889545,111.659744 38.443817,111.829872 38.998085,112.000000 
	C39.165146,112.000168 39.332207,112.000336 39.858723,112.219528 
	C40.418480,112.711807 40.680336,112.898941 41.003742,112.999947 
	C41.447353,112.999985 41.890968,113.000023 42.756477,113.166351 
	C43.451759,113.220711 43.725140,113.108780 43.998520,112.996857 
	C43.998520,112.996857 44.000000,113.000000 44.244164,112.832581 
	C44.658936,112.110100 44.829544,111.555054 45.000153,111.000000 
M32.005074,121.364105 
	C30.370123,125.938591 33.228771,123.101585 34.482086,122.907074 
	C33.841373,122.457748 33.200661,122.008423 32.005074,121.364105 
z"/>
<path fill="#D4EBF4" opacity="1.000000" stroke="none" 
	d="
M98.064484,68.917290 
	C98.391159,66.109734 98.889397,63.309723 99.013168,60.493248 
	C99.427155,51.073486 100.087036,41.639397 99.877945,32.228008 
	C99.773727,27.536882 97.984825,22.883181 97.232689,19.462091 
	C93.463867,17.814066 90.990410,16.732473 88.516953,15.650880 
	C89.153969,14.484735 89.790993,13.318591 90.724503,12.531496 
	C90.613022,15.244218 91.434052,16.417023 94.275047,16.116276 
	C96.877998,17.494802 99.144638,18.756571 101.447754,20.426983 
	C101.626366,21.918684 101.768486,23.001738 101.826797,24.281822 
	C101.742996,24.478853 101.885757,24.882587 101.805786,25.356430 
	C101.766823,42.246407 101.807831,58.662537 101.868027,75.290695 
	C101.887230,75.502724 101.838234,75.925682 101.506241,76.014465 
	C99.090187,76.879471 97.006134,77.655701 94.569336,78.431427 
	C92.278305,78.809441 90.419624,79.238480 92.024796,82.225464 
	C92.013908,83.051857 92.010826,83.524117 91.749542,83.998978 
	C91.319244,83.998116 91.147141,83.994652 90.818520,83.746078 
	C90.122124,83.324600 89.582237,83.148232 88.806747,82.962257 
	C88.571136,82.952652 88.099525,82.952011 88.099525,82.952011 
	C88.975388,81.172646 89.851250,79.393288 91.189758,77.185181 
	C92.458221,75.867172 93.264023,74.977898 94.069817,74.088623 
	C94.069817,74.088623 94.527885,74.077568 95.059418,74.039040 
	C96.068542,73.678932 96.546135,73.357346 97.023727,73.035767 
	C97.023727,73.035767 97.025352,73.008926 97.407753,73.015991 
	C101.178757,71.874763 101.012802,70.488983 98.064484,68.917290 
z"/>
<path fill="#F5FBFB" opacity="1.000000" stroke="none" 
	d="
M16.996956,113.997467 
	C18.568403,114.806679 20.139853,115.615891 21.728926,116.990112 
	C21.164543,118.370552 20.582539,119.185959 19.625385,120.001144 
	C18.499969,120.001053 17.749701,120.001198 16.806446,119.728691 
	C15.409556,118.303421 14.205651,117.150795 12.985399,115.747528 
	C12.811934,115.231567 12.654814,114.966248 12.497692,114.700935 
	C12.329154,115.131264 12.160618,115.561600 11.619036,116.002365 
	C10.454021,116.913048 9.662050,117.813293 8.870081,118.713539 
	C9.323833,119.020424 9.777587,119.327309 10.231339,119.634193 
	C10.823527,118.425438 11.415715,117.216682 12.255428,116.005760 
	C12.502953,116.003593 12.998207,116.001831 12.999592,116.393394 
	C12.790367,119.652527 13.944536,121.224533 16.998178,121.370270 
	C17.002113,122.497574 17.004896,123.249123 16.943312,124.350525 
	C15.344185,124.832527 13.798319,125.137161 12.278367,125.039307 
	C11.168995,124.967880 10.093759,124.366257 9.003305,124.000984 
	C4.654803,122.290703 2.840482,119.440369 5.074914,114.927956 
	C5.445327,114.179916 6.296234,113.666252 6.936293,113.056023 
	C8.211631,111.840157 9.494754,110.632446 10.774659,109.421364 
	C10.654432,108.781876 10.534206,108.142387 10.413980,107.502907 
	C12.235898,108.427299 14.057817,109.351692 15.941464,110.971619 
	C16.334448,112.443924 16.665703,113.220695 16.996956,113.997467 
z"/>
<path fill="#E4F9FC" opacity="1.000000" stroke="none" 
	d="
M122.796997,13.046523 
	C123.736641,13.743071 124.676285,14.439617 125.615936,15.136163 
	C124.747803,15.756724 123.922234,16.453842 122.995583,16.969172 
	C122.438629,17.278896 121.722816,17.300161 121.080528,17.459648 
	C113.601479,19.316786 113.078278,19.871374 113.028923,27.995089 
	C112.946060,41.634106 113.000824,55.273964 113.001221,68.913467 
	C113.001289,71.263405 112.707123,73.807762 116.729210,74.299698 
	C118.239014,75.677856 119.193092,76.757843 120.102783,77.888985 
	C120.058395,77.940132 119.971458,78.044006 119.673233,78.088356 
	C118.354553,78.721756 117.334099,79.310799 116.245132,79.553024 
	C115.472168,78.744705 114.767715,78.283195 113.936958,77.559311 
	C113.309715,76.511856 112.808792,75.726776 112.232056,74.481865 
	C112.051277,56.685474 111.946320,39.348907 111.871559,21.749693 
	C111.619415,21.299047 111.337067,21.111050 111.052727,20.962887 
	C111.050728,21.002724 111.106560,20.945742 111.061073,20.717453 
	C111.015587,20.489162 110.900337,20.038099 111.108612,19.752794 
	C113.561989,18.309267 115.807083,17.151045 118.442322,16.048229 
	C121.120926,16.338573 122.912651,15.929319 122.796997,13.046523 
z"/>
<path fill="#F5F8F8" opacity="1.000000" stroke="none" 
	d="
M156.168076,88.064240 
	C159.935623,87.770332 163.567963,87.770332 167.635681,87.770332 
	C166.605804,91.064514 165.828857,93.549698 165.051895,96.034889 
	C164.632996,95.917969 164.214081,95.801041 163.795181,95.684113 
	C163.963867,94.677345 164.132568,93.670570 164.371109,92.246895 
	C162.420364,92.500008 160.619247,92.733696 158.141144,93.055229 
	C157.979034,93.344643 157.285797,94.582314 156.592560,95.819992 
	C155.657745,94.953751 154.804337,93.968155 153.763046,93.258057 
	C152.890228,92.662865 151.708084,92.526184 150.822495,91.943802 
	C149.139725,90.837166 147.571091,89.556984 145.955063,88.348869 
	C146.365051,87.886124 146.775040,87.423378 147.185028,86.960632 
	C148.320374,88.043991 149.455704,89.127342 150.499344,90.123207 
	C152.409653,89.513863 154.221252,88.936005 156.168076,88.064240 
z"/>
<path fill="#626262" opacity="1.000000" stroke="none" 
	d="
M79.042633,73.463425 
	C80.386871,70.249237 80.290092,68.072067 77.712791,65.358696 
	C75.895279,63.445232 75.845886,59.852310 75.152618,56.655518 
	C76.454323,57.668365 77.610489,59.034908 78.900162,60.990700 
	C79.419456,61.932571 79.805244,62.285198 80.191025,62.637821 
	C80.301094,62.169464 80.411156,61.701107 80.521210,61.232750 
	C80.439369,60.413471 80.357521,59.594189 80.622551,58.333992 
	C81.321945,57.590237 81.674454,57.287395 82.333710,56.988899 
	C83.049728,56.998146 83.459015,57.003044 83.868294,57.007942 
	C83.900337,63.012428 83.932388,69.016914 83.683060,75.489891 
	C83.401680,75.958389 82.997513,76.139153 82.997513,76.139153 
	C81.716026,75.355209 80.434547,74.571266 79.042633,73.463425 
z"/>
<path fill="#E4F9FC" opacity="1.000000" stroke="none" 
	d="
M92.007736,83.996384 
	C92.010826,83.524117 92.013908,83.051857 92.488480,82.279495 
	C102.576256,81.979408 112.192551,81.979408 123.358612,81.979408 
	C121.684044,80.033798 120.827751,79.038902 119.971458,78.044006 
	C119.971458,78.044006 120.058395,77.940132 120.456329,77.937515 
	C122.232407,78.292236 123.610535,78.649574 124.988670,79.006912 
	C125.171646,80.841431 125.354622,82.675957 125.267136,84.738716 
	C121.240334,84.663116 117.480286,84.070900 113.728447,84.118965 
	C107.109314,84.203789 100.495201,84.679047 93.332947,84.773331 
	C92.585503,84.288124 92.325775,84.101646 92.007736,83.996384 
z"/>
<path fill="#E5F0F4" opacity="1.000000" stroke="none" 
	d="
M29.022427,132.990814 
	C29.477312,132.666336 29.932198,132.341873 30.906719,131.894180 
	C31.708757,131.578430 31.900455,131.318893 32.001450,130.992355 
	C36.089970,132.704803 36.581604,127.905304 39.617416,127.000481 
	C43.627090,132.684387 43.133259,133.310104 36.978989,136.183258 
	C33.847710,137.645096 31.417130,140.607834 28.083029,142.774353 
	C26.906349,141.899475 26.316442,141.142349 26.218636,141.016815 
	C28.058184,138.355316 29.708170,135.968094 31.623796,133.196533 
	C30.294897,133.091446 29.658663,133.041122 29.022427,132.990814 
M38.376446,132.196014 
	C38.929344,132.211060 39.484928,132.254868 40.031643,132.203751 
	C40.097809,132.197556 40.116074,131.679031 40.156544,131.397964 
	C39.577602,131.478806 38.998657,131.559647 38.376446,132.196014 
z"/>
<path fill="#E0F0F5" opacity="1.000000" stroke="none" 
	d="
M101.011032,137.001999 
	C101.103897,136.676300 101.286858,136.413254 102.108948,135.965179 
	C104.865883,134.847580 107.537483,134.405014 107.000610,131.005493 
	C108.279930,127.992508 113.903412,128.589798 113.305817,123.241562 
	C115.115402,122.434731 116.630852,122.158859 118.100647,122.232117 
	C118.131172,123.037811 118.207344,123.494385 118.095688,124.263428 
	C116.942719,126.393181 115.977562,128.210464 115.012421,130.027740 
	C114.175232,131.230957 113.338043,132.434174 111.862991,133.819916 
	C109.480026,135.656219 107.734924,137.309967 105.989822,138.963715 
	C104.755249,139.154449 103.520668,139.345184 102.126404,138.959747 
	C101.648155,137.923050 101.329590,137.462524 101.011032,137.001999 
z"/>
<path fill="#676767" opacity="1.000000" stroke="none" 
	d="
M78.898247,26.994909 
	C76.346931,25.746809 73.795609,24.498707 71.226372,23.241840 
	C72.361755,20.943653 85.967384,20.093004 93.197845,23.270870 
	C91.428314,23.883486 89.658775,24.496103 87.265656,24.848995 
	C85.436371,24.866140 84.206970,25.067945 83.031097,25.439289 
	C81.629509,25.881912 80.273819,26.469900 78.898247,26.994909 
M81.517906,25.414566 
	C81.517906,25.414566 81.583229,25.524336 81.517906,25.414566 
z"/>
<path fill="#CDE8F1" opacity="1.000000" stroke="none" 
	d="
M122.066566,89.119316 
	C122.059273,90.481796 122.051987,91.844276 122.076981,93.615616 
	C119.281326,94.347382 116.453392,94.670280 113.125549,94.753021 
	C112.085289,94.334732 111.544930,94.156593 111.004578,93.978462 
	C109.942444,93.968109 108.880310,93.957756 107.420807,93.939186 
	C107.319885,88.125107 113.002930,90.288658 115.810196,88.145714 
	C116.750885,87.427620 118.705055,88.037178 120.742401,88.289444 
	C121.499146,88.797974 121.758385,88.991409 122.066566,89.119316 
z"/>
<path fill="#5A87AA" opacity="1.000000" stroke="none" 
	d="
M122.626022,12.828470 
	C122.912651,15.929319 121.120926,16.338573 118.373680,15.704853 
	C117.173988,14.729793 116.431587,13.653438 115.692368,13.655622 
	C109.239151,13.674679 102.783272,13.818726 96.337685,14.125396 
	C95.510178,14.164768 94.737045,15.346809 93.938728,15.999515 
	C91.434052,16.417023 90.613022,15.244218 91.071671,12.525033 
	C91.122353,12.139522 91.111465,12.086300 91.509483,12.071161 
	C93.610931,11.990402 95.314362,11.924781 97.017792,11.859159 
	C98.736763,11.905336 100.455742,11.951513 103.036316,12.003624 
	C106.256828,11.958216 108.615738,11.906873 110.974655,11.855530 
	C111.421959,11.897223 111.869270,11.938914 113.089203,11.993975 
	C116.241364,11.955814 118.620895,11.904286 121.000435,11.852758 
	C121.485306,12.105312 121.970169,12.357864 122.626022,12.828470 
z"/>
<path fill="#F1F8F8" opacity="1.000000" stroke="none" 
	d="
M9.047050,124.368271 
	C10.093759,124.366257 11.168995,124.967880 12.278367,125.039307 
	C13.798319,125.137161 15.344185,124.832527 17.354712,124.350510 
	C20.220978,124.333443 22.611479,124.666267 25.001980,124.999084 
	C25.348318,125.579842 25.694654,126.160591 26.040993,126.741348 
	C21.305988,127.731476 21.547485,131.692276 21.000114,135.590652 
	C19.950247,135.534180 18.902018,135.070175 17.523611,134.460037 
	C19.344158,130.046463 16.651056,128.341232 12.957326,127.092232 
	C11.562354,126.620537 10.373570,125.539062 9.047050,124.368271 
M20.248470,127.173607 
	C20.412893,127.119110 20.577314,127.064613 20.741737,127.010117 
	C20.576366,126.956955 20.410997,126.903793 20.248470,127.173607 
z"/>
<path fill="#EEF5F5" opacity="1.000000" stroke="none" 
	d="
M113.051346,116.008484 
	C113.093719,111.113174 116.559593,108.270226 122.394730,108.323486 
	C124.636871,108.343956 126.879349,108.326828 130.553085,108.326828 
	C129.825775,110.125572 129.252090,111.544395 128.069855,112.695465 
	C125.080269,111.708504 122.931938,111.394447 123.011246,114.988213 
	C123.000763,114.999008 122.978569,115.021233 122.596024,115.016663 
	C120.625038,114.231438 119.036606,113.450775 116.981750,112.440880 
	C115.906189,113.417160 114.478767,114.712814 113.051346,116.008484 
z"/>
<path fill="#E0F0F5" opacity="1.000000" stroke="none" 
	d="
M113.146965,116.264679 
	C114.478767,114.712814 115.906189,113.417160 116.981750,112.440880 
	C119.036606,113.450775 120.625038,114.231438 122.608711,115.395622 
	C123.998398,118.841141 124.992844,121.903137 125.987289,124.965141 
	C125.879631,125.293304 125.686104,125.558884 124.865524,125.872711 
	C123.900795,125.978539 123.477234,125.973518 123.053673,125.968498 
	C122.936722,125.645935 122.740379,125.382568 122.186096,124.737167 
	C120.987770,123.884392 120.067986,123.472855 119.073990,122.762497 
	C118.944473,122.266403 118.889160,122.069153 118.899139,121.659500 
	C118.964424,121.447090 119.104240,121.025223 119.395523,120.975510 
	C119.455223,120.281113 119.223640,119.636436 118.962852,118.662811 
	C117.595657,113.739143 115.623749,118.173981 113.976395,117.985847 
	C113.731796,117.497528 113.487190,117.009201 113.146965,116.264679 
z"/>
<path fill="#E0E0E0" opacity="1.000000" stroke="none" 
	d="
M146.949249,132.998901 
	C146.203278,141.774704 139.490723,136.166428 135.709305,138.163849 
	C135.938812,129.218246 135.938812,129.218246 142.517639,129.768173 
	C142.517639,131.896942 142.517639,134.037521 142.517639,136.976868 
	C143.936310,135.384399 144.741989,134.480026 145.968964,133.291687 
	C146.576584,133.004776 146.762924,133.001831 146.949249,132.998901 
M137.444275,134.669586 
	C137.715927,134.959656 137.987595,135.249710 138.259247,135.539780 
	C138.376907,135.422623 138.606201,135.214233 138.595917,135.201660 
	C138.343765,134.893204 138.066147,134.605530 137.444275,134.669586 
z"/>
<path fill="#FCFBF7" opacity="1.000000" stroke="none" 
	d="
M82.937347,76.469704 
	C82.997513,76.139153 83.401680,75.958389 83.622902,75.951141 
	C86.720016,73.755806 89.618843,71.657898 93.792709,73.786705 
	C93.264023,74.977898 92.458221,75.867172 91.359413,76.886719 
	C87.007050,79.067993 82.947693,81.118996 78.990974,83.118141 
	C78.365822,81.053123 78.365822,81.053123 82.937347,76.469704 
z"/>
<path fill="#F5F8F8" opacity="1.000000" stroke="none" 
	d="
M124.934662,78.658394 
	C123.610535,78.649574 122.232407,78.292236 120.500717,77.886368 
	C119.193092,76.757843 118.239014,75.677856 117.135086,74.313072 
	C120.105537,72.069771 123.225845,70.111259 126.844177,68.203011 
	C127.870148,68.586304 128.398117,68.919327 129.004883,69.477562 
	C127.622253,71.313148 126.160805,72.923523 124.699356,74.533890 
	C124.089241,74.320465 123.479126,74.107048 122.869011,73.893623 
	C123.539551,75.365707 124.210098,76.837791 124.934662,78.658394 
z"/>
<path fill="#565656" opacity="1.000000" stroke="none" 
	d="
M82.026970,56.984554 
	C81.674454,57.287395 81.321945,57.590237 80.727509,57.934093 
	C80.421867,49.970089 80.358154,41.965073 80.609962,33.497154 
	C81.279968,33.022774 81.634460,33.011288 81.994614,33.468422 
	C82.009186,41.619545 82.018082,49.302048 82.026970,56.984554 
z"/>
<path fill="#FCFBF7" opacity="1.000000" stroke="none" 
	d="
M91.749542,83.998978 
	C92.325775,84.101646 92.585503,84.288124 92.897507,84.771851 
	C92.998245,85.953423 92.988396,86.918953 92.886497,88.542770 
	C92.743294,89.398941 92.692146,89.596817 92.416031,89.823593 
	C92.191071,89.852478 91.746086,89.941933 91.612228,89.954483 
	C91.478371,89.967026 91.214409,90.018280 91.171631,89.733658 
	C90.609856,89.292511 90.090858,89.136002 89.524887,89.008667 
	C89.477928,89.037857 89.238228,89.195290 88.791122,89.522133 
	C88.394440,90.214737 88.444862,90.580505 88.461563,90.712616 
	C88.258141,90.040428 88.088448,89.601883 87.852097,88.909958 
	C87.496719,88.485039 87.208000,88.313515 86.601593,88.105682 
	C85.858116,88.052391 85.432335,88.035416 85.006554,88.018433 
	C84.356857,86.755814 83.707169,85.493179 82.707787,83.550972 
	C84.545021,83.323906 85.911034,83.155075 87.688293,82.969131 
	C88.099525,82.952011 88.571136,82.952652 88.956757,83.213776 
	C89.886604,83.647003 90.430817,83.819092 90.975037,83.991188 
	C91.147141,83.994652 91.319244,83.998116 91.749542,83.998978 
z"/>
<path fill="#6A6A6A" opacity="1.000000" stroke="none" 
	d="
M82.333710,56.988899 
	C82.018082,49.302048 82.009186,41.619545 82.241089,33.564663 
	C82.940987,33.452923 83.400078,33.713562 83.859169,33.974197 
	C83.907341,41.342178 83.955513,48.710163 83.935989,56.543045 
	C83.459015,57.003044 83.049728,56.998146 82.333710,56.988899 
z"/>
<path fill="#EEF5F5" opacity="1.000000" stroke="none" 
	d="
M126.398575,124.959534 
	C124.992844,121.903137 123.998398,118.841141 122.991257,115.400192 
	C122.978569,115.021233 123.000763,114.999008 123.370537,114.954117 
	C125.136963,114.602455 126.533607,114.295685 127.930260,113.988907 
	C128.972656,117.788582 131.076920,121.696762 126.398575,124.959534 
z"/>
<path fill="#E8F7FB" opacity="1.000000" stroke="none" 
	d="
M28.817011,133.274353 
	C29.658663,133.041122 30.294897,133.091446 31.623796,133.196533 
	C29.708170,135.968094 28.058184,138.355316 26.218636,141.016815 
	C26.316442,141.142349 26.906349,141.899475 27.746048,142.824493 
	C27.210993,143.643265 26.426146,144.294128 25.264244,144.626984 
	C24.250153,142.864319 23.613119,141.419647 22.976086,139.974991 
	C22.982647,138.915146 22.989210,137.855286 22.999619,136.398026 
	C24.872839,135.186371 26.742216,134.372147 28.817011,133.274353 
z"/>
<path fill="#747474" opacity="1.000000" stroke="none" 
	d="
M51.794701,24.633053 
	C47.388752,22.850893 42.905575,21.719574 38.100861,24.512085 
	C36.720833,24.304844 35.433094,23.712965 34.145355,23.121086 
	C34.247459,22.518560 34.349564,21.916035 34.451668,21.313509 
	C39.438866,21.313509 44.433384,21.177635 49.406136,21.445637 
	C50.246815,21.490944 50.993744,23.275805 51.794701,24.633053 
z"/>
<path fill="#515151" opacity="1.000000" stroke="none" 
	d="
M44.439026,33.536053 
	C44.962154,33.481411 45.833042,33.891354 45.827923,34.290043 
	C45.731888,41.767456 45.531956,49.243542 45.004978,57.020321 
	C44.563782,49.545624 44.471378,41.770512 44.439026,33.536053 
z"/>
<path fill="#EEF7FA" opacity="1.000000" stroke="none" 
	d="
M22.609375,140.026321 
	C23.613119,141.419647 24.250153,142.864319 24.943098,144.653870 
	C23.047796,145.814407 21.096582,146.630051 18.868937,147.561249 
	C17.859468,146.160797 16.684423,144.530624 15.255632,142.548431 
	C17.686674,141.688751 19.964668,140.883209 22.609375,140.026321 
z"/>
<path fill="#EEF5F5" opacity="1.000000" stroke="none" 
	d="
M119.148201,123.061325 
	C120.067986,123.472855 120.987770,123.884392 121.964752,124.622635 
	C121.362480,128.225708 120.703011,131.502060 120.105576,134.470184 
	C118.334679,132.814850 116.971947,131.541061 115.310822,130.147491 
	C115.977562,128.210464 116.942719,126.393181 118.280968,124.164864 
	C118.861359,123.553398 119.026070,123.322571 119.148201,123.061325 
z"/>
<path fill="#D8D8D8" opacity="1.000000" stroke="none" 
	d="
M73.194702,133.284088 
	C73.762955,134.196014 74.390938,134.764343 75.018921,135.332672 
	C75.637100,134.290237 76.255280,133.247818 77.085152,131.848419 
	C77.638298,134.102051 78.055786,135.802994 78.516441,137.679794 
	C76.585083,137.991074 74.666748,138.300262 72.388863,138.667389 
	C71.540520,137.494125 70.595360,136.186951 69.464035,134.622299 
	C70.822227,132.996033 72.147118,131.409637 73.472008,129.823242 
	C73.800026,130.027908 74.128044,130.232559 74.456062,130.437210 
	C74.055519,131.271637 73.654976,132.106064 73.194702,133.284088 
z"/>
<path fill="#626262" opacity="1.000000" stroke="none" 
	d="
M156.984314,72.054459 
	C159.698166,69.005363 162.384689,65.940880 165.071213,62.876408 
	C165.475494,63.249195 165.879776,63.621983 166.284073,63.994774 
	C163.955551,67.287209 163.636856,72.555901 157.245407,72.077950 
	C156.923462,71.986053 156.957001,72.039070 156.984314,72.054459 
z"/>
<path fill="#626262" opacity="1.000000" stroke="none" 
	d="
M83.938034,33.593452 
	C83.400078,33.713562 82.940987,33.452923 82.235420,33.096046 
	C81.634460,33.011288 81.279968,33.022774 80.659332,33.033737 
	C79.944359,31.275801 79.495529,29.518381 78.972473,27.377935 
	C80.273819,26.469900 81.629509,25.881912 83.031097,25.439289 
	C84.206970,25.067945 85.436371,24.866140 86.868713,24.887915 
	C86.069199,27.861940 85.043045,30.537323 83.938034,33.593452 
z"/>
<path fill="#F1F8F8" opacity="1.000000" stroke="none" 
	d="
M20.000532,120.001373 
	C20.582539,119.185959 21.164543,118.370552 21.872969,117.280945 
	C23.836432,116.430527 27.520044,118.646751 26.629160,113.945229 
	C27.550074,113.878937 28.470985,113.812645 29.656847,114.243332 
	C29.613281,116.152885 29.304768,117.565468 28.996254,118.978043 
	C28.507595,119.257973 28.018938,119.537903 26.942987,119.948090 
	C24.237307,120.052696 22.118919,120.027039 20.000532,120.001373 
z"/>
<path fill="#E7E7E7" opacity="1.000000" stroke="none" 
	d="
M47.443756,89.903046 
	C47.024014,89.311264 46.988270,88.801773 46.952522,88.292290 
	C52.820202,88.292290 58.687885,88.292290 64.555565,88.292290 
	C64.547157,88.856636 64.538750,89.420990 64.530342,89.985336 
	C58.962814,89.985336 53.395283,89.985336 47.443756,89.903046 
z"/>
<path fill="#EEF5F5" opacity="1.000000" stroke="none" 
	d="
M113.617996,118.030670 
	C115.623749,118.173981 117.595657,113.739143 118.952660,119.003288 
	C119.015862,120.123543 119.060051,120.574387 119.104240,121.025223 
	C119.104240,121.025223 118.964424,121.447090 118.728027,121.672318 
	C118.491638,121.897537 118.146294,121.882996 118.146294,121.882996 
	C116.630852,122.158859 115.115402,122.434731 113.300293,122.856438 
	C109.222595,121.156883 110.760612,119.590927 113.617996,118.030670 
z"/>
<path fill="#CDE8F1" opacity="1.000000" stroke="none" 
	d="
M85.409691,94.203186 
	C83.444450,94.868759 81.479202,95.534332 78.936127,96.395592 
	C78.449539,95.160789 77.834946,93.601128 77.240776,92.093315 
	C78.633369,91.184975 79.765366,90.446617 80.948654,89.354156 
	C80.999939,89.000061 81.004517,88.993690 81.004517,88.993690 
	C81.004517,88.993690 81.467545,88.979744 81.754089,89.308235 
	C82.703316,90.108192 83.365990,90.579666 84.027771,91.015732 
	C84.026886,90.980331 83.956551,90.972046 83.972366,91.326538 
	C84.328773,92.296944 84.669373,92.912872 85.110550,93.697006 
	C85.211136,93.865211 85.409691,94.203178 85.409691,94.203186 
z"/>
<path fill="#EAEAEA" opacity="1.000000" stroke="none" 
	d="
M147.333496,132.987045 
	C146.762924,133.001831 146.576584,133.004776 146.108704,133.009491 
	C145.218597,131.952850 144.610031,130.894424 144.001465,129.836014 
	C144.208481,129.398895 144.415497,128.961777 144.622513,128.524658 
	C147.845016,129.311371 151.067535,130.098083 154.645020,130.942398 
	C155.000000,131.000000 154.992874,130.994568 154.992874,130.994568 
	C152.567825,131.654770 150.142776,132.314987 147.333496,132.987045 
z"/>
<path fill="#EEF5F5" opacity="1.000000" stroke="none" 
	d="
M55.983147,137.009583 
	C55.025490,137.597855 54.067833,138.186142 52.591969,139.092773 
	C52.222343,137.055344 51.919834,135.387878 51.528851,133.232727 
	C53.276974,133.009293 54.964874,132.793549 56.930214,133.076202 
	C58.144932,133.773819 59.082203,133.973068 60.019478,134.172318 
	C60.022190,134.554306 60.024906,134.936279 59.671837,135.639038 
	C58.205090,136.309738 57.094120,136.659668 55.983147,137.009583 
z"/>
<path fill="#F0FAFA" opacity="1.000000" stroke="none" 
	d="
M29.382336,118.986130 
	C29.304768,117.565468 29.613281,116.152885 29.960949,114.377991 
	C31.103683,113.345955 32.207264,112.676239 33.654987,112.000977 
	C35.062973,115.823914 34.949707,118.940857 29.382336,118.986130 
z"/>
<path fill="#E7E7E7" opacity="1.000000" stroke="none" 
	d="
M54.479118,94.647263 
	C50.897331,94.762466 47.599941,94.916702 43.659485,95.101013 
	C46.304935,90.648827 46.213928,90.948647 49.219109,92.736115 
	C50.869843,93.717957 53.299175,93.388405 55.374336,93.672859 
	C55.425640,93.679886 55.518177,94.021942 55.457794,94.091209 
	C55.259613,94.318550 54.999710,94.492081 54.479118,94.647263 
z"/>
<path fill="#EAEAEA" opacity="1.000000" stroke="none" 
	d="
M152.074890,136.927536 
	C154.439362,135.044556 156.803833,133.161575 158.774368,131.592316 
	C159.485443,136.931473 158.372742,138.185135 152.233826,137.289627 
	C152.010376,136.987411 152.074890,136.927536 152.074890,136.927536 
z"/>
<path fill="#EEF5F5" opacity="1.000000" stroke="none" 
	d="
M123.037415,126.339111 
	C123.477234,125.973518 123.900795,125.978539 124.641724,125.983612 
	C126.842705,130.238831 126.611473,131.932587 123.950150,133.708008 
	C123.642433,131.389954 123.331795,129.049835 123.037415,126.339111 
z"/>
<path fill="#EFFEFE" opacity="1.000000" stroke="none" 
	d="
M120.991470,11.494677 
	C118.620895,11.904286 116.241364,11.955814 113.420967,11.926949 
	C115.655762,9.344600 119.018013,9.046306 120.991470,11.494677 
z"/>
<path fill="#F0FAFA" opacity="1.000000" stroke="none" 
	d="
M45.011612,117.305603 
	C45.633648,115.241257 46.280216,113.473717 46.962700,111.352325 
	C47.333981,112.745865 47.669350,114.493248 47.737785,116.739746 
	C46.980545,117.825905 46.490238,118.412956 45.999935,119.000000 
	C45.678673,118.534134 45.357407,118.068268 45.011612,117.305603 
z"/>
<path fill="#EEF5F5" opacity="1.000000" stroke="none" 
	d="
M106.337906,138.939362 
	C107.734924,137.309967 109.480026,135.656219 111.599785,133.997330 
	C110.211632,135.633148 108.448814,137.274094 106.337906,138.939362 
z"/>
<path fill="#EFFEFE" opacity="1.000000" stroke="none" 
	d="
M96.965378,11.514645 
	C95.314362,11.924781 93.610931,11.990402 91.482513,12.072805 
	C92.553032,8.877195 94.322327,7.408310 96.965378,11.514645 
z"/>
<path fill="#565656" opacity="1.000000" stroke="none" 
	d="
M165.105118,33.544380 
	C164.649536,31.652935 164.460632,29.279932 163.931839,26.985250 
	C163.626007,25.658064 162.772430,24.457100 161.983871,22.934776 
	C163.616089,20.911667 164.988327,20.898176 165.143906,23.766575 
	C165.312180,26.868690 165.212189,29.985359 165.105118,33.544380 
z"/>
<path fill="#EEF5F5" opacity="1.000000" stroke="none" 
	d="
M106.652664,131.061081 
	C107.537483,134.405014 104.865883,134.847580 102.328125,135.858154 
	C103.433754,134.371429 104.869240,132.744049 106.652664,131.061081 
z"/>
<path fill="#F1F8F8" opacity="1.000000" stroke="none" 
	d="
M26.665318,107.486511 
	C28.502682,111.161217 26.100252,110.764641 23.384468,110.073502 
	C24.380919,109.159500 25.377367,108.245506 26.665318,107.486511 
z"/>
<path fill="#EAEAEA" opacity="1.000000" stroke="none" 
	d="
M56.138412,137.305908 
	C57.094120,136.659668 58.205090,136.309738 59.689018,135.925049 
	C60.141853,136.456848 60.221729,137.023438 60.301605,137.590012 
	C58.965630,137.594070 57.629650,137.598145 56.138412,137.305908 
z"/>
<path fill="#8DABBD" opacity="1.000000" stroke="none" 
	d="
M100.058136,90.505829 
	C100.502129,90.086296 100.946121,89.666748 101.390114,89.247208 
	C101.717171,89.372559 102.044228,89.497910 102.371284,89.623260 
	C101.615494,91.175026 100.859703,92.726784 100.037735,94.633430 
	C99.381477,94.836212 98.791389,94.684105 98.088921,93.913513 
	C98.670403,92.365303 99.364265,91.435570 100.058136,90.505829 
z"/>
<path fill="#515151" opacity="1.000000" stroke="none" 
	d="
M40.446625,75.101189 
	C44.136440,74.818703 48.285233,74.611328 52.718590,74.704849 
	C48.970642,75.062599 44.938122,75.119453 40.446625,75.101189 
z"/>
<path fill="#DFEDF1" opacity="1.000000" stroke="none" 
	d="
M94.017273,88.984604 
	C94.433502,88.984299 94.849731,88.983994 95.604713,89.381462 
	C95.977936,91.126938 96.012405,92.474632 96.046875,93.822334 
	C95.927071,94.249924 95.807259,94.677505 95.687454,95.105095 
	C95.245094,94.805458 94.802727,94.505821 94.159683,93.663803 
	C93.978424,91.742485 93.997849,90.363541 94.017273,88.984604 
z"/>
<path fill="#E0F0F5" opacity="1.000000" stroke="none" 
	d="
M87.918755,89.163345 
	C88.088448,89.601883 88.258141,90.040428 88.590820,91.036911 
	C89.177315,92.368217 89.600822,93.141571 90.024330,93.914925 
	C89.771240,94.388283 89.518150,94.861641 89.265068,95.335007 
	C88.915733,95.057190 88.566391,94.779373 87.957428,93.911652 
	C87.485916,91.888657 87.274033,90.455566 87.280670,89.031128 
	C87.499184,89.039780 87.918755,89.163345 87.918755,89.163345 
z"/>
<path fill="#B7D3E3" opacity="1.000000" stroke="none" 
	d="
M87.062149,89.022476 
	C87.274033,90.455566 87.485916,91.888657 87.842766,93.657707 
	C87.452499,94.055222 86.917259,94.116768 86.017456,93.971237 
	C85.652901,93.764153 85.974709,93.547272 85.951050,93.198013 
	C85.270454,92.223183 84.613503,91.597610 83.956551,90.972046 
	C83.956551,90.972046 84.026886,90.980331 83.974792,90.757050 
	C83.942642,90.358932 83.962585,90.184082 84.216751,89.907104 
	C84.618378,89.515938 84.785767,89.226921 84.953156,88.937897 
	C84.953156,88.937897 84.975266,88.477745 84.990906,88.248093 
	C85.432335,88.035416 85.858116,88.052391 86.632294,88.326004 
	C86.980690,88.582649 87.062149,89.022476 87.062149,89.022476 
z"/>
<path fill="#E0F0F5" opacity="1.000000" stroke="none" 
	d="
M127.943680,113.731461 
	C126.533607,114.295685 125.136963,114.602455 123.381020,114.943321 
	C122.931938,111.394447 125.080269,111.708504 127.706451,112.693069 
	C127.953453,113.130295 127.955284,113.302155 127.943680,113.731461 
z"/>
<path fill="#FCFBF7" opacity="1.000000" stroke="none" 
	d="
M97.912735,69.247078 
	C101.012802,70.488983 101.178757,71.874763 97.415245,73.031052 
	C97.280556,71.884995 97.520767,70.730927 97.912735,69.247078 
z"/>
<path fill="#F5F8F8" opacity="1.000000" stroke="none" 
	d="
M134.138885,73.991341 
	C134.794174,73.922600 135.264175,74.100258 135.908569,74.461960 
	C135.947647,75.564102 135.812332,76.482216 135.677017,77.400330 
	C135.181610,77.474373 134.686203,77.548416 134.190796,77.622459 
	C134.111725,76.494225 134.032654,75.365982 134.138885,73.991341 
z"/>
<path fill="#E4F9FC" opacity="1.000000" stroke="none" 
	d="
M100.049591,90.516960 
	C99.364265,91.435570 98.670403,92.365303 97.905289,93.660217 
	C97.834045,94.025398 97.348984,93.986862 97.158554,93.547394 
	C97.055344,91.723938 97.142555,90.339958 97.229767,88.955971 
	C97.505905,88.962914 97.782082,88.966721 98.396332,89.342667 
	C99.171219,89.980728 99.608063,90.243530 100.044907,90.506332 
	C100.044907,90.506332 100.041046,90.528091 100.049591,90.516960 
z"/>
<path fill="#EEF5F5" opacity="1.000000" stroke="none" 
	d="
M63.069069,130.054214 
	C62.491531,130.981491 61.913990,131.908783 60.830914,132.949280 
	C60.325378,133.062485 59.989609,132.891464 59.989609,132.891464 
	C60.787205,131.839951 61.584797,130.788452 62.694992,129.869049 
	C63.007587,130.001160 63.069069,130.054214 63.069069,130.054214 
z"/>
<path fill="#F1F8F8" opacity="1.000000" stroke="none" 
	d="
M20.841576,111.837631 
	C20.193287,111.564240 19.660500,110.985390 19.127712,110.406540 
	C19.726202,110.027824 20.324692,109.649109 20.923183,109.270393 
	C20.934481,110.024315 20.945778,110.778244 20.841576,111.837631 
z"/>
<path fill="#F0FAFA" opacity="1.000000" stroke="none" 
	d="
M40.002048,120.665367 
	C39.073875,120.395569 38.145260,119.793404 37.216644,119.191238 
	C38.001526,118.955513 38.786400,118.719803 39.788269,118.743835 
	C40.004044,119.446724 40.002827,119.889862 40.002048,120.665367 
z"/>
<path fill="#EFFEFE" opacity="1.000000" stroke="none" 
	d="
M110.690063,11.602936 
	C108.615738,11.906873 106.256828,11.958216 103.461533,11.933559 
	C105.485260,11.688488 107.945374,11.519415 110.690063,11.602936 
z"/>
<path fill="#7293A9" opacity="1.000000" stroke="none" 
	d="
M90.421448,93.920395 
	C89.600822,93.141571 89.177315,92.368217 88.624550,91.270569 
	C88.444862,90.580505 88.394440,90.214737 88.848930,90.014702 
	C90.419601,90.907257 91.485359,91.634087 92.697205,92.319283 
	C92.843307,92.277641 93.116776,92.145226 93.146851,92.402695 
	C93.168060,93.006172 93.159203,93.352188 93.150337,93.698204 
	C92.373077,93.774086 91.595825,93.849976 90.421448,93.920395 
z"/>
<path fill="#515151" opacity="1.000000" stroke="none" 
	d="
M44.416161,61.455460 
	C44.661476,62.311348 44.816002,63.545483 44.669384,64.856941 
	C44.353951,63.900745 44.339661,62.867226 44.416161,61.455460 
z"/>
<path fill="#515151" opacity="1.000000" stroke="none" 
	d="
M55.325943,75.122696 
	C55.005707,74.355995 55.023834,73.665184 55.046074,72.628510 
	C55.911053,72.801102 56.771919,73.319557 57.632790,73.838013 
	C56.976631,74.291542 56.320473,74.745071 55.325943,75.122696 
z"/>
<path fill="#F0FAFA" opacity="1.000000" stroke="none" 
	d="
M41.185356,119.199928 
	C41.757771,118.341858 42.526287,117.676071 43.649635,117.005753 
	C43.130127,117.798218 42.255795,118.595207 41.185356,119.199928 
z"/>
<path fill="#F5FBFB" opacity="1.000000" stroke="none" 
	d="
M45.999985,119.249924 
	C46.490238,118.412956 46.980545,117.825905 47.738007,117.119324 
	C47.552456,117.979530 47.099747,118.959274 46.323517,119.969513 
	C46.000000,120.000000 45.999542,119.999695 45.999542,119.999695 
	C45.999542,119.999695 46.000038,119.499847 45.999985,119.249924 
z"/>
<path fill="#969696" opacity="1.000000" stroke="none" 
	d="
M180.075592,134.791779 
	C180.456680,134.211929 180.985489,133.313156 181.514282,132.414383 
	C181.873489,132.758881 182.232697,133.103394 182.591904,133.447906 
	C181.802368,133.789551 181.012833,134.131195 180.075592,134.791779 
z"/>
<path fill="#565656" opacity="1.000000" stroke="none" 
	d="
M160.743622,34.264565 
	C161.282944,34.840694 161.858902,35.758358 162.147842,36.877205 
	C161.500641,36.254295 161.140457,35.430199 160.743622,34.264565 
z"/>
<path fill="#EEF5F5" opacity="1.000000" stroke="none" 
	d="
M100.697578,137.047333 
	C101.329590,137.462524 101.648155,137.923050 101.989517,138.676575 
	C101.165962,138.667496 100.319611,138.365387 99.473267,138.063293 
	C99.776886,137.739746 100.080513,137.416199 100.697578,137.047333 
z"/>
<path fill="#515151" opacity="1.000000" stroke="none" 
	d="
M37.575680,72.419319 
	C37.945293,72.949226 37.977303,73.540749 38.007168,74.575836 
	C37.274536,74.864235 36.544052,74.709061 35.813564,74.553886 
	C36.288403,73.862900 36.763237,73.171921 37.575680,72.419319 
z"/>
<path fill="#969696" opacity="1.000000" stroke="none" 
	d="
M59.620445,132.916000 
	C59.989609,132.891464 60.325378,133.062485 60.512184,133.082794 
	C60.771446,133.438416 60.669674,133.707993 60.206573,134.042068 
	C59.082203,133.973068 58.144932,133.773819 57.125389,133.348175 
	C57.779175,133.061356 58.515228,133.000946 59.620445,132.916000 
z"/>
<path fill="#6A6A6A" opacity="1.000000" stroke="none" 
	d="
M93.308586,93.822838 
	C93.159203,93.352188 93.168060,93.006172 93.133804,91.998047 
	C92.940781,90.822189 92.790886,90.308449 92.640991,89.794701 
	C92.692146,89.596817 92.743294,89.398941 92.873055,88.904327 
	C93.134529,88.655670 93.317390,88.703735 93.758759,88.868202 
	C93.997849,90.363541 93.978424,91.742485 93.914345,93.533127 
	C93.869698,93.944824 93.466835,93.947472 93.308586,93.822838 
z"/>
<path fill="#E7E7E7" opacity="1.000000" stroke="none" 
	d="
M43.682800,89.040565 
	C43.284286,89.631599 42.850002,89.939201 42.415714,90.246803 
	C42.346062,89.824142 42.276409,89.401474 42.206760,88.978806 
	C42.686848,88.904915 43.166935,88.831024 43.682800,89.040565 
z"/>
<path fill="#7293A9" opacity="1.000000" stroke="none" 
	d="
M96.894173,88.871078 
	C97.142555,90.339958 97.055344,91.723938 96.916824,93.519844 
	C96.865524,93.931763 96.450546,93.919266 96.248711,93.870804 
	C96.012405,92.474632 95.977936,91.126938 95.916779,89.372803 
	C96.112923,88.906303 96.335747,88.846245 96.894173,88.871078 
z"/>
<path fill="#EEF7FA" opacity="1.000000" stroke="none" 
	d="
M13.239605,144.626480 
	C12.994201,144.072617 12.994201,143.452560 12.994201,142.832520 
	C13.230654,142.851242 13.467108,142.869965 13.703561,142.888702 
	C13.630710,143.445908 13.557859,144.003098 13.239605,144.626480 
z"/>
<path fill="#E5F0F4" opacity="1.000000" stroke="none" 
	d="
M40.956757,138.604218 
	C40.714958,138.207611 40.716747,137.812744 40.747437,137.420120 
	C40.748333,137.408630 41.054230,137.420990 41.217918,137.422226 
	C41.213444,137.816910 41.208969,138.211594 40.956757,138.604218 
z"/>
<path fill="#6D6D6D" opacity="1.000000" stroke="none" 
	d="
M80.134491,61.207657 
	C80.411156,61.701107 80.301094,62.169464 80.191025,62.637821 
	C79.805244,62.285198 79.419456,61.932571 79.010277,61.307480 
	C79.240509,61.084198 79.494141,61.133385 80.134491,61.207657 
z"/>
<path fill="#F5F8F8" opacity="1.000000" stroke="none" 
	d="
M145.038666,77.299469 
	C145.447006,76.960968 145.894073,76.919167 146.670990,76.953133 
	C146.762527,77.539474 146.524231,78.050056 146.285919,78.560631 
	C145.883072,78.239143 145.480240,77.917656 145.038666,77.299469 
z"/>
<path fill="#5A87AA" opacity="1.000000" stroke="none" 
	d="
M83.982521,90.009239 
	C83.962585,90.184082 83.942642,90.358932 83.975685,90.792450 
	C83.365990,90.579666 82.703316,90.108192 81.985710,89.309067 
	C82.364967,88.959473 82.799149,88.937546 83.570602,89.232300 
	C83.907860,89.548981 83.982521,90.009239 83.982521,90.009239 
z"/>
<path fill="#F5F8F8" opacity="1.000000" stroke="none" 
	d="
M148.076172,83.690063 
	C147.529663,83.721603 147.142090,83.594604 146.754517,83.467606 
	C146.860458,83.361732 146.989990,83.150261 147.068390,83.167778 
	C147.464615,83.256279 147.847519,83.404350 148.076172,83.690063 
z"/>
<path fill="#5D5D5D" opacity="1.000000" stroke="none" 
	d="
M130.736649,51.867424 
	C130.405289,51.273453 130.161606,50.288055 130.288193,49.195866 
	C130.713745,49.884716 130.769028,50.680359 130.736649,51.867424 
z"/>
<path fill="#F1F8F8" opacity="1.000000" stroke="none" 
	d="
M16.997358,113.658966 
	C16.665703,113.220695 16.334448,112.443924 16.003315,111.328049 
	C16.334877,111.766121 16.666317,112.543289 16.997358,113.658966 
z"/>
<path fill="#F5FBFB" opacity="1.000000" stroke="none" 
	d="
M34.864174,107.302887 
	C35.053356,107.609268 35.027863,107.947205 35.002365,108.285141 
	C34.766777,108.213638 34.531189,108.142143 34.295601,108.070641 
	C34.413567,107.825241 34.531532,107.579849 34.864174,107.302887 
z"/>
<path fill="#F0FAFA" opacity="1.000000" stroke="none" 
	d="
M44.753830,111.166199 
	C44.829544,111.555054 44.658936,112.110100 44.242683,112.832016 
	C44.167198,112.443382 44.337353,111.887894 44.753830,111.166199 
z"/>
<path fill="#EAEAEA" opacity="1.000000" stroke="none" 
	d="
M151.976227,137.015167 
	C151.825928,136.579788 151.709793,136.116653 151.593658,135.653534 
	C151.736374,135.919159 151.879074,136.184784 152.048340,136.688980 
	C152.074890,136.927536 152.010376,136.987411 151.976227,137.015167 
z"/>
<path fill="#F5F8F8" opacity="1.000000" stroke="none" 
	d="
M111.157150,94.224632 
	C111.544930,94.156593 112.085289,94.334732 112.767174,94.766251 
	C112.375717,94.836685 111.842720,94.653740 111.157150,94.224632 
z"/>
<path fill="#F5F8F8" opacity="1.000000" stroke="none" 
	d="
M133.028091,72.593521 
	C133.393356,72.612686 133.802902,72.911163 134.264130,73.506279 
	C133.901321,73.492889 133.486847,73.182854 133.028091,72.593521 
z"/>
<path fill="#FCFBF7" opacity="1.000000" stroke="none" 
	d="
M96.718826,73.044800 
	C96.546135,73.357346 96.068542,73.678932 95.287712,74.019798 
	C95.460953,73.710663 95.937439,73.382248 96.718826,73.044800 
z"/>
<path fill="#F0FAFA" opacity="1.000000" stroke="none" 
	d="
M39.000717,111.751266 
	C38.443817,111.829872 37.889545,111.659744 37.167725,111.245117 
	C37.443405,110.998032 37.886639,110.995453 38.664932,110.996429 
	C39.000000,111.000000 39.006542,111.005058 39.006542,111.005058 
	C39.006542,111.005058 39.003353,111.502541 39.000717,111.751266 
z"/>
<path fill="#CDE8F1" opacity="1.000000" stroke="none" 
	d="
M80.996979,89.003021 
	C80.550743,88.875084 80.107468,88.744186 79.664200,88.613289 
	C80.039375,88.590988 80.414551,88.568680 80.897125,88.770035 
	C81.004517,88.993690 80.999939,89.000061 80.996979,89.003021 
z"/>
<path fill="#969696" opacity="1.000000" stroke="none" 
	d="
M62.101913,92.129456 
	C62.423702,91.840034 62.748768,91.882080 63.073830,91.924133 
	C63.009460,92.180351 62.945091,92.436562 62.880722,92.692780 
	C62.622215,92.615494 62.363705,92.538208 62.101913,92.129456 
z"/>
<path fill="#CDE8F1" opacity="1.000000" stroke="none" 
	d="
M84.216751,89.907104 
	C83.982521,90.009239 83.907860,89.548981 83.892105,89.316513 
	C84.055847,89.059113 84.235336,89.034180 84.683990,88.973572 
	C84.785767,89.226921 84.618378,89.515938 84.216751,89.907104 
z"/>
<path fill="#F0FAFA" opacity="1.000000" stroke="none" 
	d="
M43.748886,112.997162 
	C43.725140,113.108780 43.451759,113.220711 43.089188,113.166321 
	C43.000000,113.000000 43.499256,112.997482 43.748886,112.997162 
z"/>
<path fill="#F0FAFA" opacity="1.000000" stroke="none" 
	d="
M38.997368,110.996643 
	C39.090271,110.960022 39.185810,110.926758 39.143944,110.949272 
	C39.006542,111.005058 39.000000,111.000000 38.997368,110.996643 
z"/>
<path fill="#565656" opacity="1.000000" stroke="none" 
	d="
M164.958008,36.738617 
	C164.796570,36.713062 164.686188,36.450104 164.740021,36.107059 
	C164.904266,36.026974 165.009048,36.501205 164.958008,36.738617 
z"/>
<path fill="#565656" opacity="1.000000" stroke="none" 
	d="
M164.289993,40.878868 
	C164.110184,40.575737 164.267441,40.351292 164.700699,40.106339 
	C164.778000,40.318840 164.661438,40.609417 164.289993,40.878868 
z"/>
<path fill="#F0FAFA" opacity="1.000000" stroke="none" 
	d="
M40.895576,112.780212 
	C40.680336,112.898941 40.418480,112.711807 40.109314,112.219437 
	C40.324715,112.100014 40.587032,112.286743 40.895576,112.780212 
z"/>
<path fill="#F5FBFB" opacity="1.000000" stroke="none" 
	d="
M46.000153,120.000153 
	C45.908222,120.035942 45.816132,120.071571 45.861794,120.053452 
	C45.999542,119.999695 46.000000,120.000000 46.000153,120.000153 
z"/>
<path fill="#F0FAFA" opacity="1.000000" stroke="none" 
	d="
M40.166946,121.913010 
	C40.000252,121.835068 40.000195,121.667694 40.001152,121.249237 
	C40.112644,121.273293 40.223114,121.548431 40.166946,121.913010 
z"/>
<path fill="#E0F0F5" opacity="1.000000" stroke="none" 
	d="
M85.974709,93.547272 
	C85.974709,93.547272 85.652901,93.764153 85.613464,93.955231 
	C85.574036,94.146317 85.499100,94.197906 85.454391,94.200546 
	C85.409691,94.203178 85.211136,93.865211 85.349228,93.833099 
	C85.649788,93.716423 85.812248,93.631851 85.974709,93.547272 
z"/>
<path fill="#EAEAEA" opacity="1.000000" stroke="none" 
	d="
M155.002777,131.003571 
	C155.093369,130.967865 155.181198,130.928589 155.130951,130.941956 
	C154.992874,130.994568 155.000000,131.000000 155.002777,131.003571 
z"/>
<path fill="#F5F8F8" opacity="1.000000" stroke="none" 
	d="
M154.466949,77.449814 
	C154.522614,77.416763 154.411270,77.482857 154.466949,77.449814 
z"/>
<path fill="#EEF5F5" opacity="1.000000" stroke="none" 
	d="
M62.980396,129.971008 
	C63.081284,129.930023 63.209366,129.919220 63.203259,129.981323 
	C63.069069,130.054214 63.007587,130.001160 62.980396,129.971008 
z"/>
<path fill="#5D5D5D" opacity="1.000000" stroke="none" 
	d="
M129.530945,45.554672 
	C129.473541,45.590687 129.588348,45.518658 129.530945,45.554672 
z"/>
<path fill="#B7D3E3" opacity="1.000000" stroke="none" 
	d="
M122.330719,89.181778 
	C121.758385,88.991409 121.499146,88.797974 121.187538,88.319763 
	C121.952301,88.406967 122.818367,88.713425 123.684425,89.019875 
	C123.321243,89.094666 122.958061,89.169456 122.330719,89.181778 
z"/>
<path fill="#8DABBD" opacity="1.000000" stroke="none" 
	d="
M99.988617,90.075439 
	C99.608063,90.243530 99.171219,89.980728 98.603447,89.347092 
	C98.959122,89.199013 99.445724,89.421783 99.988617,90.075439 
z"/>
<path fill="#F0FAFA" opacity="1.000000" stroke="none" 
	d="
M19.625385,120.001144 
	C22.118919,120.027039 24.237307,120.052696 26.689468,120.072250 
	C26.384773,121.481926 25.746305,122.897713 25.054909,124.656296 
	C22.611479,124.666267 20.220978,124.333443 17.419079,124.000641 
	C17.004896,123.249123 17.002113,122.497574 16.999037,121.122009 
	C16.998741,120.497993 16.999432,120.001343 16.999432,120.001343 
	C17.749701,120.001198 18.499969,120.001053 19.625385,120.001144 
z"/>
<path fill="#F0FAFA" opacity="1.000000" stroke="none" 
	d="
M32.282509,121.461609 
	C33.200661,122.008423 33.841373,122.457748 34.482086,122.907074 
	C33.228771,123.101585 30.370123,125.938591 32.282509,121.461609 
z"/>
<path fill="#E8F7FB" opacity="1.000000" stroke="none" 
	d="
M31.855171,130.835754 
	C31.900455,131.318893 31.708757,131.578430 31.199591,131.865875 
	C31.218182,131.533585 31.463537,131.106369 31.855171,130.835754 
z"/>
<path fill="#267DC0" opacity="1.000000" stroke="none" 
	d="
M94.275047,16.116276 
	C94.737045,15.346809 95.510178,14.164768 96.337685,14.125396 
	C102.783272,13.818726 109.239151,13.674679 115.692368,13.655622 
	C116.431587,13.653438 117.173988,14.729793 117.983551,15.649446 
	C115.807083,17.151045 113.561989,18.309267 110.958534,19.855385 
	C110.768974,20.477434 110.937767,20.711588 111.106560,20.945744 
	C111.106560,20.945742 111.050728,21.002724 111.030579,21.232586 
	C111.007996,21.642286 111.005554,21.822123 110.994095,22.248240 
	C110.985085,22.494518 110.966270,22.987043 110.545067,22.991194 
	C103.881271,22.466301 106.613289,27.210968 106.007553,30.464748 
	C106.003754,43.471535 106.123032,56.011272 105.929146,68.546165 
	C105.869835,72.380608 107.156403,74.508232 110.978394,75.008850 
	C110.993660,75.008530 110.988892,75.038689 110.992416,75.408844 
	C111.658928,77.500908 112.321922,79.222809 112.568886,80.952713 
	C110.766098,80.951180 109.379356,80.941650 107.879135,80.725792 
	C107.561516,80.264656 107.301857,80.094528 106.994057,80.008049 
	C107.001419,80.007027 106.987473,80.021873 106.951462,79.698898 
	C106.278839,78.914848 105.642227,78.453766 104.949478,77.857765 
	C104.808548,77.674873 104.723740,77.626900 104.638939,77.578918 
	C104.756844,77.721176 104.874741,77.863434 104.940308,78.350571 
	C103.919258,79.137489 102.950546,79.579521 101.981926,80.015594 
	C101.982018,80.009636 101.967331,80.027115 102.108841,79.714546 
	C102.112976,78.243210 101.975601,77.084450 101.838226,75.925682 
	C101.838234,75.925682 101.887230,75.502724 102.192474,75.010963 
	C102.657669,73.886604 102.955887,73.254303 102.957283,72.621353 
	C102.990105,57.742168 103.013046,42.862820 102.949692,27.983877 
	C102.945282,26.948622 102.256363,25.916283 101.885757,24.882587 
	C101.885757,24.882587 101.742996,24.478853 102.125626,24.056597 
	C102.142593,22.429007 101.776932,21.223673 101.411270,20.018339 
	C99.144638,18.756571 96.877998,17.494802 94.275047,16.116276 
M108.585022,76.516472 
	C108.585022,76.516472 108.476997,76.580322 108.585022,76.516472 
z"/>
<path fill="#366B8E" opacity="1.000000" stroke="none" 
	d="
M107.992607,80.932114 
	C109.379356,80.941650 110.766098,80.951180 112.872589,80.958832 
	C114.071281,80.643135 114.550224,80.329330 115.350540,79.989464 
	C115.885826,79.942215 116.099739,79.921028 116.313644,79.899849 
	C117.334099,79.310799 118.354553,78.721756 119.673233,78.088356 
	C120.827751,79.038902 121.684044,80.033798 123.358612,81.979408 
	C112.192551,81.979408 102.576256,81.979408 92.496284,81.925369 
	C90.419624,79.238480 92.278305,78.809441 94.606529,78.835732 
	C97.320091,79.502724 99.643715,79.764923 101.967331,80.027115 
	C101.967331,80.027115 101.982018,80.009636 102.203857,80.273285 
	C103.946289,80.365242 105.466881,80.193558 106.987473,80.021873 
	C106.987473,80.021873 107.001419,80.007027 107.098099,80.223801 
	C107.394974,80.711113 107.660919,80.874962 107.992607,80.932114 
z"/>
<path fill="#1A5F92" opacity="1.000000" stroke="none" 
	d="
M101.805786,25.356432 
	C102.256363,25.916283 102.945282,26.948622 102.949692,27.983877 
	C103.013046,42.862820 102.990105,57.742168 102.957283,72.621353 
	C102.955887,73.254303 102.657669,73.886604 102.173279,74.798935 
	C101.807831,58.662537 101.766823,42.246407 101.805786,25.356432 
z"/>
<path fill="#2B7BB9" opacity="1.000000" stroke="none" 
	d="
M102.108841,79.714546 
	C99.643715,79.764923 97.320091,79.502724 94.959274,78.836227 
	C97.006134,77.655701 99.090187,76.879471 101.506241,76.014465 
	C101.975601,77.084450 102.112976,78.243210 102.108841,79.714546 
z"/>
<path fill="#1A5F92" opacity="1.000000" stroke="none" 
	d="
M101.447754,20.426985 
	C101.776932,21.223673 102.142593,22.429007 102.209435,23.859566 
	C101.768486,23.001738 101.626366,21.918684 101.447754,20.426985 
z"/>
<path fill="#E4F9FC" opacity="1.000000" stroke="none" 
	d="
M90.818520,83.746078 
	C90.430817,83.819092 89.886604,83.647003 89.192368,83.223389 
	C89.582237,83.148232 90.122124,83.324600 90.818520,83.746078 
z"/>
<path fill="#F1F8F8" opacity="1.000000" stroke="none" 
	d="
M16.806446,119.728691 
	C16.999432,120.001343 16.998741,120.497993 16.997883,120.746246 
	C13.944536,121.224533 12.790367,119.652527 13.000488,116.392479 
	C13.000000,116.000000 13.001748,115.998169 13.001747,115.998169 
	C14.205651,117.150795 15.409556,118.303421 16.806446,119.728691 
z"/>
<path fill="#F1F8F8" opacity="1.000000" stroke="none" 
	d="
M12.007903,116.007927 
	C11.415715,117.216682 10.823527,118.425438 10.231339,119.634193 
	C9.777587,119.327309 9.323833,119.020424 8.870081,118.713539 
	C9.662050,117.813293 10.454021,116.913048 11.623014,116.006393 
	C12.000039,116.000000 12.007903,116.007927 12.007903,116.007927 
z"/>
<path fill="#F1F8F8" opacity="1.000000" stroke="none" 
	d="
M12.999104,116.000916 
	C12.998207,116.001831 12.502953,116.003593 12.255428,116.005760 
	C12.007903,116.007927 12.000039,116.000000 11.996060,115.995964 
	C12.160618,115.561600 12.329154,115.131264 12.497692,114.700935 
	C12.654814,114.966248 12.811934,115.231567 12.985400,115.747528 
	C13.001748,115.998169 13.000000,116.000000 12.999104,116.000916 
z"/>
<path fill="#3A739C" opacity="1.000000" stroke="none" 
	d="
M110.966270,22.987043 
	C110.966270,22.987043 110.985085,22.494518 111.203636,22.249199 
	C111.422188,22.003881 111.841362,22.012339 111.841362,22.012339 
	C111.946320,39.348907 112.051277,56.685474 111.902306,74.509026 
	C111.428551,75.010239 111.208717,75.024460 110.988892,75.038689 
	C110.988892,75.038689 110.993660,75.008530 110.985077,74.630501 
	C110.966652,73.496178 110.956818,72.739876 110.962540,71.517181 
	C110.974144,55.029537 110.970207,39.008289 110.966270,22.987043 
z"/>
<path fill="#2B7BB9" opacity="1.000000" stroke="none" 
	d="
M110.992416,75.408844 
	C111.208717,75.024460 111.428551,75.010239 111.978119,74.968849 
	C112.808792,75.726776 113.309715,76.511856 113.937775,77.880722 
	C114.386322,78.981506 114.707741,79.498505 115.029160,80.015518 
	C114.550224,80.329330 114.071281,80.643135 113.288635,80.950829 
	C112.321922,79.222809 111.658928,77.500908 110.992416,75.408844 
z"/>
<path fill="#2B77B5" opacity="1.000000" stroke="none" 
	d="
M115.350540,79.989456 
	C114.707741,79.498505 114.386322,78.981506 114.064087,78.143097 
	C114.767715,78.283195 115.472168,78.744705 116.245132,79.553024 
	C116.099739,79.921028 115.885826,79.942215 115.350540,79.989456 
z"/>
<path fill="#2B77B5" opacity="1.000000" stroke="none" 
	d="
M111.061073,20.717453 
	C110.937767,20.711588 110.768974,20.477434 110.750259,20.140690 
	C110.900337,20.038099 111.015587,20.489162 111.061073,20.717453 
z"/>
<path fill="#2B77B5" opacity="1.000000" stroke="none" 
	d="
M111.871559,21.749693 
	C111.841362,22.012339 111.422188,22.003881 111.212646,22.002922 
	C111.005554,21.822123 111.007996,21.642286 111.032578,21.192749 
	C111.337067,21.111050 111.619415,21.299047 111.871559,21.749693 
z"/>
<path fill="#F5FBFB" opacity="1.000000" stroke="none" 
	d="
M38.398079,131.918259 
	C38.998657,131.559647 39.577602,131.478806 40.156544,131.397949 
	C40.116074,131.679031 40.097809,132.197556 40.031643,132.203751 
	C39.484928,132.254868 38.929344,132.211060 38.398079,131.918259 
z"/>
<path fill="#DFEDF1" opacity="1.000000" stroke="none" 
	d="
M118.100647,122.232117 
	C118.146294,121.882996 118.491638,121.897537 118.662750,121.884720 
	C118.889160,122.069153 118.944473,122.266403 119.073990,122.762497 
	C119.026070,123.322571 118.861359,123.553398 118.468796,123.852386 
	C118.207344,123.494385 118.131172,123.037811 118.100647,122.232117 
z"/>
<path fill="#626262" opacity="1.000000" stroke="none" 
	d="
M81.550568,25.469452 
	C81.583229,25.524336 81.517906,25.414566 81.550568,25.469452 
z"/>
<path fill="#F5FBFB" opacity="1.000000" stroke="none" 
	d="
M20.247049,127.012123 
	C20.410997,126.903793 20.576366,126.956955 20.741737,127.010117 
	C20.577314,127.064613 20.412893,127.119110 20.247049,127.012123 
z"/>
<path fill="#DFEDF1" opacity="1.000000" stroke="none" 
	d="
M119.395523,120.975510 
	C119.060051,120.574387 119.015862,120.123543 118.981865,119.332230 
	C119.223640,119.636436 119.455223,120.281113 119.395523,120.975510 
z"/>
<path fill="#FDFDFD" opacity="1.000000" stroke="none" 
	d="
M137.618683,134.491852 
	C138.066147,134.605530 138.343765,134.893204 138.595917,135.201660 
	C138.606201,135.214233 138.376907,135.422623 138.259247,135.539780 
	C137.987595,135.249710 137.715927,134.959656 137.618683,134.491852 
z"/>
<path fill="#E4F9FC" opacity="1.000000" stroke="none" 
	d="
M92.551109,92.360924 
	C91.485359,91.634087 90.419601,90.907257 89.296036,89.687859 
	C89.238228,89.195290 89.477928,89.037857 89.769287,89.233215 
	C90.445236,89.625145 90.829826,89.821709 91.214409,90.018280 
	C91.214409,90.018280 91.478371,89.967026 91.729256,90.363876 
	C92.170464,91.294121 92.360786,91.827522 92.551109,92.360924 
z"/>
<path fill="#B7D3E3" opacity="1.000000" stroke="none" 
	d="
M92.697205,92.319283 
	C92.360786,91.827522 92.170464,91.294121 91.863113,90.351326 
	C91.746086,89.941933 92.191071,89.852478 92.416031,89.823593 
	C92.790886,90.308449 92.940781,90.822189 93.103729,91.740585 
	C93.116776,92.145226 92.843307,92.277641 92.697205,92.319283 
z"/>
<path fill="#B7D3E3" opacity="1.000000" stroke="none" 
	d="
M91.171631,89.733658 
	C90.829826,89.821709 90.445236,89.625145 89.816254,89.204025 
	C90.090858,89.136002 90.609856,89.292511 91.171631,89.733658 
z"/>
<path fill="#CDE8F1" opacity="1.000000" stroke="none" 
	d="
M87.280670,89.031128 
	C87.062149,89.022476 86.980690,88.582649 86.949989,88.362320 
	C87.208000,88.313515 87.496719,88.485039 87.852097,88.909958 
	C87.918755,89.163345 87.499184,89.039780 87.280670,89.031128 
z"/>
<path fill="#7293A9" opacity="1.000000" stroke="none" 
	d="
M85.951050,93.198013 
	C85.812248,93.631851 85.649788,93.716423 85.248650,93.664886 
	C84.669373,92.912872 84.328773,92.296944 83.972366,91.326538 
	C84.613503,91.597610 85.270454,92.223183 85.951050,93.198013 
z"/>
<path fill="#2B7BB9" opacity="1.000000" stroke="none" 
	d="
M110.946983,71.983582 
	C110.956818,72.739876 110.966652,73.496178 110.969803,74.630814 
	C107.156403,74.508232 105.869835,72.380608 105.929146,68.546165 
	C106.123032,56.011272 106.003754,43.471535 106.428772,30.468735 
	C110.232971,29.715000 110.009659,32.038422 110.005829,34.281105 
	C109.987328,45.111210 109.956512,55.941696 110.041222,66.771172 
	C110.054832,68.510902 110.630920,70.246223 110.946983,71.983582 
z"/>
<path fill="#2B77B5" opacity="1.000000" stroke="none" 
	d="
M110.962540,71.517181 
	C110.630920,70.246223 110.054832,68.510902 110.041222,66.771172 
	C109.956512,55.941696 109.987328,45.111210 110.005829,34.281105 
	C110.009659,32.038422 110.232971,29.715000 106.431412,29.999825 
	C106.613289,27.210968 103.881271,22.466301 110.545067,22.991194 
	C110.970207,39.008289 110.974144,55.029537 110.962540,71.517181 
z"/>
<path fill="#2B7BB9" opacity="1.000000" stroke="none" 
	d="
M106.951462,79.698898 
	C105.466881,80.193558 103.946289,80.365242 102.203766,80.279236 
	C102.950546,79.579521 103.919258,79.137489 104.943985,78.347733 
	C105.000000,78.000000 105.005615,77.992676 105.005615,77.992676 
	C105.642227,78.453766 106.278839,78.914848 106.951462,79.698898 
z"/>
<path fill="#2B7BB9" opacity="1.000000" stroke="none" 
	d="
M108.531006,76.548401 
	C108.476997,76.580322 108.585022,76.516472 108.531006,76.548401 
z"/>
<path fill="#2B7BB9" opacity="1.000000" stroke="none" 
	d="
M104.996323,78.002846 
	C104.874741,77.863434 104.756844,77.721176 104.638939,77.578918 
	C104.723740,77.626900 104.808548,77.674873 104.949478,77.857765 
	C105.005615,77.992676 105.000000,78.000000 104.996323,78.002846 
z"/>
<path fill="#2B7BB9" opacity="1.000000" stroke="none" 
	d="
M107.879135,80.725784 
	C107.660919,80.874962 107.394974,80.711113 107.090729,80.224823 
	C107.301857,80.094528 107.561516,80.264656 107.879135,80.725784 
z"/>
</svg>